<?xml version="1.0" standalone="no"?>
<!DOCTYPE svg PUBLIC "-//W3C//DTD SVG 20010904//EN"
 "http://www.w3.org/TR/2001/REC-SVG-20010904/DTD/svg10.dtd">
<svg version="1.0" xmlns="http://www.w3.org/2000/svg"
 width="626.000000pt" height="626.000000pt" viewBox="0 0 626.000000 626.000000"
 preserveAspectRatio="xMidYMid meet">
<metadata>
Created by potrace 1.11, written by Peter Selinger 2001-2013
</metadata>
<g transform="translate(0.000000,626.000000) scale(0.100000,-0.100000)"
fill="#000000" stroke="none">
<path d="M1290 4858 c-100 -52 -174 -151 -199 -266 -16 -74 -16 -2849 0 -2924
25 -117 96 -212 203 -267 51 -27 68 -31 140 -31 70 0 89 4 139 30 71 36 97 59
144 128 72 106 73 119 73 729 l0 543 1310 0 1309 0 3 -557 c3 -502 5 -563 21
-611 35 -105 100 -182 192 -231 75 -39 193 -43 269 -8 103 47 181 142 213 257
18 63 19 2888 1 2958 -16 63 -68 151 -116 194 -21 19 -64 47 -95 62 -51 25
-65 28 -139 25 -68 -3 -93 -9 -138 -33 -101 -53 -180 -168 -200 -291 -6 -34
-10 -289 -10 -582 l0 -523 -1310 0 -1310 0 0 541 c0 460 -2 550 -16 603 -30
116 -99 205 -199 255 -52 27 -71 31 -141 31 -72 0 -88 -4 -144 -32z"/>
<path d="M527 4336 c-71 -26 -131 -85 -157 -153 -20 -52 -20 -79 -20 -1053 0
-982 0 -1000 20 -1054 22 -57 70 -109 132 -143 26 -14 55 -18 133 -18 90 0
104 3 145 27 62 36 95 74 119 136 21 52 21 64 20 1055 0 932 -1 1005 -18 1045
-24 61 -63 107 -118 139 -39 23 -60 28 -132 30 -56 2 -99 -2 -124 -11z"/>
<path d="M5488 4341 c-79 -26 -150 -99 -174 -178 -12 -38 -14 -218 -14 -1031
0 -1111 -4 -1056 74 -1136 69 -71 96 -81 211 -81 84 0 107 4 140 22 53 28 99
78 124 133 20 44 21 61 21 1060 0 961 -1 1017 -19 1055 -25 56 -66 101 -119
132 -38 23 -59 27 -131 30 -47 1 -98 -2 -113 -6z"/>
<path d="M74 3656 c-17 -8 -40 -30 -52 -50 -22 -37 -22 -43 -22 -479 l1 -442
27 -39 c47 -69 112 -67 159 3 l24 35 -3 458 -3 458 -30 29 c-38 37 -62 43
-101 27z"/>
<path d="M6120 3657 c-13 -7 -35 -28 -47 -46 l-23 -34 0 -447 0 -447 23 -34
c48 -71 117 -71 163 2 l24 39 0 440 0 440 -24 39 c-15 23 -38 43 -57 50 -18 6
-32 11 -33 11 -1 0 -12 -6 -26 -13z"/>
</g>
</svg>
